<?xml version="1.0" encoding="UTF-8"?>
<svg id="uuid-486c6528-d9b1-4e72-99a7-5a75d77e578a" data-name="Layer 1" xmlns="http://www.w3.org/2000/svg" viewBox="0 0 100 100">
  <path d="M50,0C22.39,0,0,22.39,0,50s22.39,50,50,50,50-22.39,50-50S77.61,0,50,0ZM44.85,69.81c0,3.84-3.11,6.95-6.95,6.95h-1.7c-3.84,0-6.95-3.11-6.95-6.95V30.19c0-3.84,3.11-6.95,6.95-6.95h1.7c3.84,0,6.95,3.11,6.95,6.95v39.62ZM70.75,69.81c0,3.84-3.11,6.95-6.95,6.95h-1.7c-3.84,0-6.95-3.11-6.95-6.95V30.19c0-3.84,3.11-6.95,6.95-6.95h1.7c3.84,0,6.95,3.11,6.95,6.95v39.62Z"/>
</svg>